<svg xmlns="http://www.w3.org/2000/svg" pointer-events="none" class="leaflet-zoom-animated" width="1415" height="862" viewBox="-118 -72 1415 862" style="transform: translate3d(-118px, -72px, 0px);"><g><path class="leaflet-interactive" stroke="black" stroke-opacity="1" stroke-width="2" stroke-linecap="round" stroke-linejoin="round" fill="#fff" fill-opacity="0.2" fill-rule="evenodd" d="M412 447L414 457L411 461L414 467L414 471L411 473L411 482L416 486L416 491L418 488L420 488L423 491L423 493L428 495L429 499L425 502L425 504L432 503L433 506L435 507L436 511L434 514L434 520L435 521L437 518L438 523L446 527L450 535L454 533L455 534L453 538L452 536L452 538L451 537L454 538L454 540L458 543L462 551L464 552L469 547L470 551L476 551L485 558L490 559L490 561L492 562L498 560L500 565L503 567L508 565L508 568L512 572L517 575L516 572L518 572L519 574L523 574L532 581L533 578L536 576L543 579L544 576L551 575L552 573L567 578L569 576L569 578L571 579L581 573L583 575L589 574L591 576L593 575L592 573L596 570L603 573L604 575L607 575L609 571L613 569L624 580L622 581L625 584L632 587L642 580L644 583L645 579L649 578L648 577L650 577L654 570L658 572L659 571L662 575L661 576L664 577L662 579L664 586L661 588L661 590L662 593L665 595L662 603L659 603L660 607L666 612L663 618L668 619L667 623L672 633L675 632L677 629L680 631L680 638L684 643L686 640L688 641L692 639L697 633L700 632L705 634L706 633L711 641L720 644L731 644L731 641L733 643L737 641L738 648L734 656L737 664L741 660L748 664L748 667L755 667L755 669L760 673L765 673L769 671L770 673L772 670L774 672L776 671L778 666L779 668L784 668L786 666L785 663L787 659L791 658L794 663L797 663L795 668L795 675L799 678L798 681L801 680L803 682L810 679L811 675L809 670L813 667L820 656L819 654L824 648L826 649L837 640L856 640L859 636L857 630L860 617L859 611L861 609L861 596L858 585L856 571L857 570L854 566L856 563L853 562L855 557L860 555L857 554L852 562L847 565L846 561L843 565L839 563L836 572L835 570L833 572L831 570L827 573L827 571L822 567L820 562L816 559L816 557L813 557L813 554L805 556L803 556L804 554L802 552L800 554L798 552L796 554L796 552L793 551L795 550L793 548L796 545L794 545L793 542L792 544L792 532L795 531L793 529L794 525L793 523L790 523L788 519L778 518L779 515L776 514L770 515L770 513L765 510L767 508L766 506L770 505L768 499L766 499L767 493L769 493L770 491L775 495L775 497L779 499L790 499L793 495L795 496L798 493L803 493L802 489L807 480L806 477L807 475L808 476L809 471L807 471L807 469L804 468L806 464L804 462L804 459L806 459L808 455L807 453L809 451L812 453L814 447L821 446L822 448L827 445L834 444L830 436L830 428L827 425L827 423L831 423L833 413L827 413L825 411L827 409L827 405L831 397L830 396L834 395L835 392L836 393L843 390L846 392L847 391L855 398L856 395L858 398L863 398L867 403L865 410L872 414L873 423L876 423L881 431L888 428L889 429L898 423L902 423L904 420L906 420L906 416L908 416L908 414L912 414L914 412L916 413L918 409L924 411L926 403L922 399L922 396L915 385L915 382L918 380L918 378L916 377L916 372L920 369L913 366L909 369L907 368L908 367L904 369L902 368L900 370L900 364L890 357L886 357L885 353L881 348L885 343L885 335L881 338L878 336L876 332L870 333L866 331L864 335L851 337L840 333L838 338L832 335L824 336L822 335L816 324L814 310L811 307L804 304L799 306L797 302L799 299L794 298L796 294L795 293L791 293L787 290L788 288L782 288L778 291L771 289L769 292L765 288L765 286L763 288L760 287L762 285L759 283L760 280L765 277L764 274L761 272L762 269L764 267L769 267L769 261L773 258L779 247L782 247L784 245L784 242L786 242L786 244L788 241L797 241L804 235L808 234L807 227L813 221L813 219L816 217L822 207L829 207L839 204L839 200L840 198L841 199L842 195L846 193L854 193L854 191L855 192L855 187L858 185L859 181L865 179L870 181L876 164L872 165L868 170L860 174L854 176L850 175L845 180L839 180L834 186L829 185L817 191L813 198L809 200L806 199L809 188L808 182L812 177L816 176L817 167L818 168L820 162L818 157L814 161L812 159L809 165L805 167L798 155L794 153L791 155L787 153L785 157L782 156L780 158L780 164L775 169L771 169L768 171L768 161L764 160L763 162L760 163L755 162L751 159L750 161L749 160L744 161L742 163L738 163L736 159L735 160L733 157L728 157L727 154L724 154L722 151L718 151L716 148L706 148L705 146L703 149L701 149L700 146L699 147L696 145L690 145L688 143L690 139L687 140L686 137L685 138L683 136L684 141L680 136L681 139L676 141L674 137L671 137L671 139L669 139L662 135L660 138L661 140L658 143L658 150L655 151L655 153L656 152L658 154L656 154L657 156L653 157L656 160L658 160L657 163L653 162L656 168L654 173L657 174L655 175L657 177L653 177L651 179L653 184L652 193L654 195L647 196L647 198L649 199L647 200L647 207L650 213L650 218L647 218L644 215L643 216L644 219L640 225L640 230L634 232L631 231L625 236L620 236L623 237L621 237L621 241L616 238L612 238L610 241L611 242L608 243L609 244L605 251L593 248L593 255L590 256L587 260L577 260L572 266L569 265L567 268L567 264L562 261L562 259L561 261L560 259L559 260L559 264L554 265L551 263L549 264L539 261L536 264L530 264L530 260L522 262L522 260L515 258L513 259L509 257L507 258L509 259L510 264L506 266L509 271L508 282L507 283L504 281L500 281L498 279L486 281L484 285L481 287L472 290L474 294L470 295L463 306L460 305L455 308L452 306L447 309L443 307L438 310L435 308L432 312L431 310L427 309L425 310L423 315L415 317L409 321L406 318L404 318L402 327L396 331L393 327L390 327L385 332L376 332L369 335L365 331L359 334L355 333L354 336L357 337L353 341L354 344L358 352L360 354L364 354L366 361L366 364L364 363L359 368L361 371L360 372L365 373L367 375L371 375L371 378L377 379L379 381L374 388L374 395L378 396L380 402L382 402L382 405L374 410L376 415L381 415L385 417L388 421L392 421L392 423L395 426L395 432L397 436L399 436L400 439L406 440L412 445zM415 489L414 487L413 489zM822 188L822 186L820 187L821 188zM663 585L664 583L661 585L662 587L663 584zM569 578L568 577z" id="河南省"/><path class="leaflet-interactive" stroke="#333" stroke-opacity="1" stroke-width="1" stroke-linecap="round" stroke-linejoin="round" stroke-dasharray="1,6" fill="#eee" fill-opacity="0.5" fill-rule="evenodd" d="M705 297L703 295L700 296L696 293L687 293L680 300L676 299L673 301L666 302L662 297L656 299L653 296L647 296L644 292L634 293L631 289L622 295L617 293L614 299L606 301L607 304L603 306L597 306L594 303L588 307L586 305L583 305L580 309L578 308L576 311L577 313L583 312L588 319L585 322L578 322L578 326L580 328L579 330L578 329L584 339L591 339L587 341L585 347L576 346L573 344L570 345L568 357L572 361L578 362L580 366L595 366L602 370L609 368L611 364L613 364L615 361L618 362L622 360L623 354L625 354L635 362L640 361L644 365L648 364L653 369L658 368L658 366L667 362L674 363L673 353L676 349L684 351L687 348L685 346L688 343L691 346L693 345L694 337L697 334L696 331L699 332L699 321L697 319L700 314L696 308L703 307L705 299z" id="郑州市"/><path class="leaflet-interactive" stroke="#333" stroke-opacity="1" stroke-width="1" stroke-linecap="round" stroke-linejoin="round" stroke-dasharray="1,6" fill="#eee" fill-opacity="0.5" fill-rule="evenodd" d="M674 363L676 366L679 365L688 373L691 371L694 372L696 377L699 377L699 375L703 375L704 372L707 372L711 368L717 372L720 372L726 366L723 365L724 362L726 364L727 362L731 365L732 364L733 368L735 367L735 369L750 372L750 374L761 368L766 370L767 367L762 362L763 358L765 358L762 355L762 352L763 349L765 349L768 346L766 327L767 325L770 324L767 322L764 323L762 320L763 318L760 315L764 313L769 316L774 314L776 315L779 313L785 314L788 311L790 313L792 312L792 310L798 311L800 307L797 302L799 299L794 298L796 294L791 293L787 290L788 288L782 288L778 291L771 289L769 292L765 288L765 286L763 288L757 288L752 293L755 298L754 300L751 301L746 298L745 300L738 298L731 300L721 295L719 295L716 299L705 298L703 307L697 308L700 314L697 318L699 321L699 332L696 331L697 334L694 337L692 346L688 343L685 346L687 348L686 350L680 351L680 349L677 349L673 353L674 360z" id="开封市"/><path class="leaflet-interactive" stroke="#333" stroke-opacity="1" stroke-width="1" stroke-linecap="round" stroke-linejoin="round" stroke-dasharray="1,6" fill="#eee" fill-opacity="0.5" fill-rule="evenodd" d="M435 421L440 425L447 424L456 429L458 427L465 429L468 428L474 434L477 433L486 437L487 442L492 443L495 446L504 444L505 440L510 442L509 437L512 436L517 429L519 430L519 432L524 430L527 424L526 423L528 422L527 421L532 418L536 416L540 420L542 420L547 414L549 414L552 411L548 408L551 406L552 399L554 398L552 397L557 391L559 385L558 381L553 374L555 372L553 368L559 362L562 361L562 364L573 361L571 359L569 360L568 356L570 352L570 345L572 344L576 346L585 347L587 341L592 339L585 339L579 333L578 329L579 330L580 328L578 326L578 323L581 321L584 322L588 319L585 317L584 313L577 313L577 307L568 307L562 304L561 305L561 297L556 296L554 293L551 296L548 295L548 297L549 296L551 300L528 293L526 295L518 288L512 285L506 285L504 281L500 281L497 284L499 287L502 288L499 290L501 292L492 297L492 300L499 305L501 304L505 312L502 318L504 318L500 325L501 327L497 329L496 333L494 330L492 331L490 327L487 327L481 333L475 334L473 338L475 340L464 337L461 339L457 339L450 345L445 347L439 347L439 345L436 347L436 350L432 348L429 355L425 356L424 358L424 360L427 361L429 366L427 376L433 379L436 383L437 382L437 384L438 383L445 389L443 393L443 402L439 405L439 407L433 406L433 410L431 412L430 411L435 418zM505 313L504 313z" id="洛阳市"/><path class="leaflet-interactive" stroke="#333" stroke-opacity="1" stroke-width="1" stroke-linecap="round" stroke-linejoin="round" stroke-dasharray="1,6" fill="#eee" fill-opacity="0.5" fill-rule="evenodd" d="M647 430L646 426L643 425L635 427L634 425L627 422L629 421L629 417L626 412L631 405L629 394L625 394L625 396L623 393L624 392L617 386L615 387L615 389L613 387L610 388L605 385L603 377L600 375L600 368L597 368L595 366L580 366L580 364L576 361L566 362L562 364L562 361L559 362L553 368L553 370L555 371L553 374L559 385L557 391L551 397L554 398L552 399L551 405L548 407L552 411L549 414L547 414L542 420L534 417L527 421L528 422L526 423L527 424L525 429L526 431L528 430L533 435L540 434L544 438L546 438L551 444L558 441L559 443L563 442L573 447L579 445L582 441L588 442L589 444L597 448L598 460L604 459L606 462L610 461L615 466L614 467L619 470L630 471L630 482L628 486L629 494L631 491L634 490L640 490L644 493L645 490L650 492L653 488L651 488L649 485L649 479L656 462L647 464L643 464L643 462L641 462L641 464L636 462L636 458L638 455L637 453L642 454L643 448L645 446L644 444L651 439L646 434L646 431z" id="平顶山市"/><path class="leaflet-interactive" stroke="#333" stroke-opacity="1" stroke-width="1" stroke-linecap="round" stroke-linejoin="round" stroke-dasharray="1,6" fill="#eee" fill-opacity="0.5" fill-rule="evenodd" d="M723 235L724 238L721 241L724 250L723 252L721 252L722 258L720 260L722 262L720 263L725 265L729 265L739 256L747 255L750 250L758 250L763 245L771 246L773 244L773 235L770 234L773 231L772 225L767 223L764 219L768 214L768 209L765 204L770 199L771 197L769 194L772 192L774 187L774 174L768 171L768 161L764 160L763 162L760 163L755 162L751 159L750 161L749 160L744 161L742 163L738 163L736 159L735 160L733 157L728 157L727 154L724 154L722 151L718 151L716 148L706 148L705 146L703 149L701 149L700 146L699 147L696 145L690 145L688 143L690 139L687 140L686 137L685 138L683 136L684 141L680 136L681 139L676 141L674 137L671 137L671 139L669 139L662 135L660 138L661 140L658 143L658 150L655 151L655 153L656 152L658 154L656 154L657 156L653 157L656 160L658 160L657 163L653 162L656 168L654 173L657 174L655 175L657 177L653 177L651 179L653 184L652 193L654 195L660 196L663 203L666 206L667 205L666 211L664 212L665 213L676 213L678 212L678 210L681 211L691 204L692 199L687 199L688 197L686 192L690 191L692 186L687 182L687 180L690 181L691 179L693 179L696 173L699 171L701 172L700 178L702 179L704 177L705 179L710 180L710 182L713 182L711 183L712 184L709 188L710 189L707 190L705 194L709 202L708 203L716 197L724 197L728 195L735 196L736 194L738 194L742 200L748 200L753 203L753 206L746 213L745 216L743 215L734 221L730 220L730 222L728 223L729 224L721 230L720 232L723 234z" id="安阳市"/><path class="leaflet-interactive" stroke="#333" stroke-opacity="1" stroke-width="1" stroke-linecap="round" stroke-linejoin="round" stroke-dasharray="1,6" fill="#eee" fill-opacity="0.5" fill-rule="evenodd" d="M684 210L689 213L691 224L700 230L710 232L709 235L713 239L717 236L718 237L720 235L723 235L720 232L729 224L728 223L730 223L730 221L737 220L743 215L745 216L746 213L751 210L753 204L749 200L742 200L738 194L735 196L728 195L725 197L716 197L709 203L705 194L707 190L710 190L710 185L713 182L710 182L710 180L707 180L704 177L702 179L700 176L700 171L695 175L694 179L690 181L687 180L687 182L692 186L691 190L686 192L688 197L687 199L692 199L691 204L684 208z" id="鹤壁市"/><path class="leaflet-interactive" stroke="#333" stroke-opacity="1" stroke-width="1" stroke-linecap="round" stroke-linejoin="round" stroke-dasharray="1,6" fill="#eee" fill-opacity="0.5" fill-rule="evenodd" d="M771 246L763 245L756 250L750 250L748 251L748 254L746 256L743 255L736 258L729 265L724 265L722 263L720 264L722 262L720 260L722 258L721 252L723 252L724 250L722 248L723 246L721 241L724 238L724 236L720 235L714 239L709 235L711 232L700 230L695 227L690 222L689 213L684 210L678 210L678 212L676 213L665 213L664 212L666 211L667 205L666 206L663 203L661 197L658 197L658 195L647 196L647 198L649 199L647 200L647 207L650 213L650 218L647 218L644 215L643 222L640 225L640 230L634 232L631 231L628 233L636 244L638 256L640 256L643 261L641 265L642 270L643 272L648 274L652 284L652 288L649 290L647 296L653 296L656 299L662 297L666 302L673 301L676 299L680 300L686 293L696 293L699 296L703 295L707 299L715 299L719 295L721 295L731 300L738 298L745 300L746 298L750 301L754 300L755 299L752 294L753 291L762 285L759 283L760 280L765 277L764 274L761 272L762 269L764 267L769 267L769 261L773 258L777 251L772 247z" id="新乡市"/><path class="leaflet-interactive" stroke="#333" stroke-opacity="1" stroke-width="1" stroke-linecap="round" stroke-linejoin="round" stroke-dasharray="1,6" fill="#eee" fill-opacity="0.5" fill-rule="evenodd" d="M578 308L579 309L583 305L588 307L594 303L597 306L603 306L607 304L606 301L614 299L617 293L622 295L631 289L634 293L643 292L647 296L649 290L652 288L652 284L648 275L642 271L641 265L643 261L641 259L641 256L638 256L636 244L628 233L625 236L620 236L623 237L621 237L621 241L616 238L612 238L610 241L611 242L608 243L609 244L605 251L593 248L592 256L590 256L585 261L577 260L572 266L572 276L569 284L563 290L557 292L555 291L554 293L555 296L561 297L561 305L562 304L568 307L577 307z" id="焦作市"/><path class="leaflet-interactive" stroke="#333" stroke-opacity="1" stroke-width="1" stroke-linecap="round" stroke-linejoin="round" stroke-dasharray="1,6" fill="#eee" fill-opacity="0.5" fill-rule="evenodd" d="M777 251L779 247L782 247L784 245L784 242L786 242L786 244L788 241L797 241L804 235L808 234L807 227L813 221L813 219L816 217L822 207L829 207L839 204L839 200L840 198L841 199L842 195L846 193L854 193L854 191L855 192L855 187L858 185L859 181L865 179L870 181L876 164L872 165L868 170L860 174L854 176L850 175L845 180L839 180L834 186L829 185L817 191L813 198L809 200L806 199L809 188L808 182L812 177L816 176L816 171L820 160L818 159L818 157L814 161L812 159L809 165L805 167L798 155L794 153L791 155L787 153L785 157L782 156L780 158L780 164L775 169L771 169L768 171L774 174L774 187L772 192L769 194L771 197L770 199L765 204L768 209L768 214L764 218L767 223L772 225L773 228L773 231L770 234L773 235L772 239L774 240L774 242L771 246L773 249zM822 188L822 186L820 187L821 188z" id="濮阳市"/><path class="leaflet-interactive" stroke="#333" stroke-opacity="1" stroke-width="1" stroke-linecap="round" stroke-linejoin="round" stroke-dasharray="1,6" fill="#eee" fill-opacity="0.5" fill-rule="evenodd" d="M708 371L704 372L703 375L699 375L699 377L696 377L694 375L694 372L692 371L688 373L681 367L675 365L675 363L667 362L658 366L658 368L653 369L649 364L644 365L640 361L636 362L631 360L630 357L627 357L625 354L623 354L622 360L619 360L618 362L615 361L607 369L601 369L600 374L603 377L605 385L610 388L613 387L615 389L616 386L624 392L624 396L625 394L630 395L631 404L626 412L629 416L629 421L627 422L634 425L635 427L643 425L646 426L646 430L649 431L648 432L657 433L663 430L663 428L660 426L663 418L660 417L659 415L667 411L671 413L672 405L677 405L677 403L687 400L692 404L692 406L696 408L695 413L698 416L699 421L701 420L711 424L713 423L713 399L711 398L708 388L711 384L711 376L709 372zM668 411L667 412L669 412L668 411z" id="许昌市"/><path class="leaflet-interactive" stroke="#333" stroke-opacity="1" stroke-width="1" stroke-linecap="round" stroke-linejoin="round" stroke-dasharray="1,6" fill="#eee" fill-opacity="0.5" fill-rule="evenodd" d="M656 464L657 462L658 463L658 461L666 461L672 456L682 456L686 451L689 450L691 452L695 452L694 454L696 454L702 462L702 459L710 457L711 448L707 432L702 433L700 436L699 435L696 437L695 433L693 434L694 425L697 424L697 420L699 420L698 416L695 414L696 408L692 406L692 404L690 404L688 400L677 403L677 405L672 404L673 409L671 413L664 411L659 415L663 418L662 424L660 426L663 428L663 430L659 432L658 431L657 433L648 433L649 431L646 431L647 437L651 439L644 444L642 454L637 454L638 455L636 458L636 462L641 464L641 462L643 462L643 464L656 462z" id="漯河市"/><path class="leaflet-interactive" stroke="#333" stroke-opacity="1" stroke-width="1" stroke-linecap="round" stroke-linejoin="round" stroke-dasharray="1,6" fill="#eee" fill-opacity="0.5" fill-rule="evenodd" d="M500 281L498 279L486 281L484 285L481 287L472 290L474 294L470 295L463 306L460 305L455 308L452 306L447 309L443 307L438 310L435 308L432 312L431 310L427 309L425 310L423 315L415 317L409 321L406 318L404 318L402 327L396 331L393 327L390 327L385 332L376 332L369 335L365 331L359 334L355 333L354 336L357 337L353 341L354 344L358 352L360 354L364 354L366 361L366 364L364 363L359 368L361 371L360 372L365 373L367 375L371 375L371 378L377 379L379 381L374 388L374 395L378 396L380 402L382 402L382 405L374 410L375 413L378 416L381 415L385 417L388 421L392 421L392 423L395 426L395 432L397 436L399 436L400 439L406 440L412 445L412 447L420 447L423 443L425 439L424 434L428 433L430 423L432 421L435 421L433 414L431 414L430 412L433 410L433 406L438 407L444 400L444 387L440 386L439 383L437 384L437 382L436 383L426 374L429 371L429 366L426 360L424 360L425 356L429 355L432 348L436 350L436 347L438 345L439 347L447 347L459 338L460 339L466 337L474 340L473 336L481 333L487 327L490 327L492 331L494 330L496 333L498 328L501 327L500 325L502 320L504 319L502 318L502 316L505 313L501 306L502 305L499 305L492 300L492 298L496 294L501 293L499 291L502 288L497 285L499 281zM505 312L505 313z" id="三门峡市"/><path class="leaflet-interactive" stroke="#333" stroke-opacity="1" stroke-width="1" stroke-linecap="round" stroke-linejoin="round" stroke-dasharray="1,6" fill="#eee" fill-opacity="0.5" fill-rule="evenodd" d="M412 447L414 457L411 461L414 467L414 471L411 473L411 482L416 486L416 491L418 488L420 488L423 491L423 493L428 495L429 499L425 502L425 504L432 503L433 506L435 507L436 511L434 514L434 520L435 521L437 518L438 523L446 527L450 535L454 533L455 534L453 538L452 536L452 538L451 537L454 538L454 540L458 543L460 548L464 552L469 547L470 551L476 551L485 558L490 559L490 561L492 562L498 560L500 565L503 567L508 565L508 568L512 572L517 575L516 572L518 572L519 574L523 574L532 581L533 578L536 576L543 579L544 576L551 575L552 573L567 578L569 576L569 578L571 579L581 573L583 575L589 574L591 576L593 575L592 573L596 570L603 573L604 575L607 575L609 571L613 569L624 580L622 581L625 584L632 587L642 580L644 583L645 579L649 578L648 577L650 577L654 570L658 572L660 566L661 567L663 565L663 558L665 553L668 551L665 548L666 547L657 541L649 539L650 544L647 546L645 551L641 552L638 555L630 550L625 555L619 552L616 552L616 554L612 554L612 548L610 546L614 542L617 545L615 540L612 539L610 532L611 527L609 525L612 520L612 517L608 516L607 514L602 514L605 507L612 500L622 500L629 496L629 490L627 488L629 487L629 476L631 473L630 471L619 470L613 465L611 461L606 462L604 459L598 460L598 450L588 442L582 441L579 445L573 447L569 444L561 442L560 443L557 441L551 444L547 438L545 438L541 434L535 436L528 430L523 430L519 432L518 429L512 436L509 437L511 442L508 442L506 440L504 441L504 443L496 446L492 443L488 443L486 437L478 433L474 434L468 428L465 429L459 427L457 429L448 424L441 425L433 421L429 425L428 433L424 434L425 438L422 445L420 447L418 446L414 448zM415 489L414 487L413 489zM569 578L568 577z" id="南阳市"/><path class="leaflet-interactive" stroke="#333" stroke-opacity="1" stroke-width="1" stroke-linecap="round" stroke-linejoin="round" stroke-dasharray="1,6" fill="#eee" fill-opacity="0.5" fill-rule="evenodd" d="M835 392L836 393L843 390L846 392L847 391L855 398L856 395L858 398L863 398L867 403L865 410L872 414L873 423L876 423L881 431L888 428L889 429L898 423L902 423L904 420L906 420L906 416L908 416L908 414L912 414L914 412L916 413L918 409L924 411L926 403L922 399L922 396L915 385L915 382L918 380L918 378L916 377L916 372L920 369L913 366L909 369L907 368L908 367L904 369L902 368L900 370L900 364L890 357L886 357L885 353L881 348L885 343L885 335L881 338L878 336L876 332L870 333L866 331L864 335L851 337L840 333L838 338L832 335L824 336L822 335L816 324L814 310L811 307L804 304L799 306L800 307L798 311L792 310L792 312L788 311L785 314L779 313L770 316L764 313L761 314L760 315L763 317L761 320L764 323L766 322L770 324L766 326L768 345L765 349L763 348L762 354L765 357L763 358L762 362L768 368L787 376L786 378L788 380L786 386L786 391L788 393L787 396L782 397L782 402L780 404L782 406L785 406L786 403L792 404L794 402L793 400L797 402L799 401L799 397L802 397L802 399L807 397L812 400L816 400L820 397L824 397L826 394L825 389L834 390z" id="商丘市"/><path class="leaflet-interactive" stroke="#333" stroke-opacity="1" stroke-width="1" stroke-linecap="round" stroke-linejoin="round" stroke-dasharray="1,6" fill="#eee" fill-opacity="0.5" fill-rule="evenodd" d="M662 587L662 593L665 595L662 603L659 603L660 607L666 612L663 618L668 619L667 623L672 633L675 632L677 629L680 631L680 638L684 643L686 640L688 641L692 639L697 633L700 632L705 634L706 633L711 641L720 644L731 644L731 641L733 643L737 641L738 648L734 656L736 663L737 664L741 660L748 664L748 667L755 667L755 669L760 673L765 673L769 671L770 673L772 670L774 672L776 671L778 666L779 668L784 668L786 666L785 663L787 659L791 658L794 663L797 663L795 668L795 675L799 678L798 681L801 680L803 682L810 679L811 675L809 670L813 667L820 656L819 654L824 648L826 649L837 640L856 640L859 636L857 630L860 617L859 611L861 609L861 596L858 585L856 571L857 570L854 566L856 563L853 562L855 557L860 555L859 554L857 554L852 562L847 565L846 561L843 565L839 563L836 572L835 570L833 572L831 570L827 573L827 571L822 567L820 562L816 559L816 557L813 557L813 554L803 556L804 554L802 552L800 554L798 552L796 554L796 552L793 551L788 553L788 551L784 548L774 545L767 545L767 548L765 550L756 550L758 555L756 557L756 561L753 559L752 560L749 557L748 560L745 559L738 561L736 563L738 567L736 569L743 574L740 580L735 585L730 583L726 586L723 586L716 581L716 578L713 576L711 577L711 571L709 572L707 567L703 568L704 565L702 563L700 563L699 567L697 566L695 568L693 567L690 558L689 560L683 562L681 561L677 550L675 551L673 549L669 549L665 553L663 557L663 565L661 567L660 566L658 571L662 575L661 576L664 577L662 579L664 583L663 586zM663 585L664 583L661 585L662 587L663 584z" id="信阳市"/><path class="leaflet-interactive" stroke="#333" stroke-opacity="1" stroke-width="1" stroke-linecap="round" stroke-linejoin="round" stroke-dasharray="1,6" fill="#eee" fill-opacity="0.5" fill-rule="evenodd" d="M766 499L767 493L769 493L770 491L775 495L775 497L779 499L790 499L793 495L795 496L798 493L803 493L802 489L807 480L806 477L807 475L808 476L809 471L807 471L807 469L804 468L806 464L804 462L804 459L806 459L808 455L807 453L809 451L812 453L814 447L821 446L822 448L827 445L834 444L830 436L830 428L827 425L827 423L831 423L833 413L827 413L825 411L827 409L827 405L831 397L830 396L834 395L835 392L833 389L825 389L826 394L818 398L817 400L812 400L808 397L804 399L802 399L802 397L799 397L799 401L797 402L794 400L792 404L787 403L785 404L785 406L783 406L780 405L782 402L782 397L787 396L788 393L786 391L786 386L788 382L786 378L787 376L780 374L779 372L767 367L766 370L761 368L759 370L754 371L754 373L751 374L750 372L735 369L735 367L733 368L732 365L727 362L727 364L723 362L723 365L726 366L725 369L721 372L717 372L711 368L709 371L709 374L711 375L711 384L708 388L711 398L713 399L713 423L711 424L698 420L697 424L693 425L693 434L695 433L695 437L698 437L699 435L700 436L707 431L711 448L710 457L713 456L717 459L725 457L729 461L729 463L735 461L737 466L741 470L743 470L747 474L747 476L751 476L750 484L748 485L747 489L750 492L750 494L754 496L757 502L762 502L763 500L766 499z" id="周口市"/><path class="leaflet-interactive" stroke="#333" stroke-opacity="1" stroke-width="1" stroke-linecap="round" stroke-linejoin="round" stroke-dasharray="1,6" fill="#eee" fill-opacity="0.5" fill-rule="evenodd" d="M668 551L668 549L672 549L675 551L677 550L680 561L683 562L689 560L690 558L692 567L699 567L700 563L702 563L704 565L703 568L707 567L709 572L710 571L711 576L716 577L716 581L718 582L718 584L721 584L723 586L726 586L727 584L729 585L730 583L735 585L736 583L738 583L737 582L743 575L736 569L738 568L736 563L737 561L744 559L748 560L749 557L751 560L753 559L755 561L757 560L756 557L758 556L756 550L765 550L767 546L772 545L781 548L784 547L788 551L788 553L795 550L793 548L796 545L794 545L793 542L792 544L792 532L795 531L793 529L794 525L793 523L790 523L788 519L778 518L779 515L770 515L770 513L765 510L767 508L766 506L770 505L768 499L763 500L762 502L757 502L757 500L755 500L754 496L752 496L747 489L748 485L750 484L751 476L747 476L747 474L745 474L743 470L741 471L737 467L735 461L729 463L729 461L725 457L716 459L713 456L706 459L702 459L702 462L700 460L701 459L698 458L696 454L694 454L695 453L689 450L686 451L682 456L672 456L666 461L659 461L658 463L657 462L655 467L652 469L652 473L649 479L649 485L651 488L653 488L650 492L648 490L645 490L644 493L640 490L631 491L629 496L622 500L612 500L604 508L602 514L607 514L610 517L612 517L612 520L609 525L611 527L611 539L615 540L615 542L618 545L614 542L613 543L611 546L612 553L616 554L616 552L619 552L627 555L630 550L638 555L641 552L645 551L647 546L650 544L649 539L657 541L663 546L664 545L667 551z" id="驻马店市"/><path class="leaflet-interactive" stroke="#333" stroke-opacity="1" stroke-width="1" stroke-linecap="round" stroke-linejoin="round" stroke-dasharray="1,6" fill="#eee" fill-opacity="0.5" fill-rule="evenodd" d="M571 266L569 265L567 268L567 264L562 261L562 259L561 261L560 259L559 260L559 264L554 265L551 263L549 264L539 261L536 264L530 264L530 260L522 262L522 260L515 258L513 259L509 257L507 258L509 259L510 264L506 266L509 271L508 282L506 285L511 285L518 288L525 295L527 293L550 300L551 298L548 295L551 296L554 294L555 291L561 291L569 284L572 276L572 268z" id="济源市"/></g></svg>